<?xml version="1.0" encoding="UTF-8"?>
<!-- Generator: Adobe Illustrator 28.2.0, SVG Export Plug-In . SVG Version: 6.00 Build 0)  -->
<svg version="1.1" id="Layer_1" xmlns="http://www.w3.org/2000/svg" xmlns:xlink="http://www.w3.org/1999/xlink" x="0px" y="0px" viewBox="0 0 93.1 34" style="enable-background:new 0 0 93.1 34;" xml:space="preserve">
<style type="text/css">
	.st0{fill:#FFFFFF;}
	.st1{fill:#EF4123;}
</style>
<g>
	<path d="M7.8,15.2h4.4v-1.8H0v1.8h4.4v5.6h0.1h3.2h0.1C7.8,20.8,7.8,15.2,7.8,15.2z M34.2,17.5h-3l1.5-2.4L34.2,17.5z M22.2,15.9   c0,0.4-0.3,0.8-0.8,0.8h-5v-1.5h5C21.9,15.1,22.2,15.5,22.2,15.9 M40,20.8l-4.8-7.4h-4.8L26,20.5l-2.6-2.2c0,0,0.8-0.2,1.4-0.9   c0.4-0.4,0.5-1,0.5-1.5v-0.1c0-1.3-1-2.4-2.4-2.4h-9.8v7.4h3.3v-2.5h3l2.8,2.5h3.5H29l0.9-1.4h5.3l0.9,1.4H40z M42.9,17.1   c0-1.2,2.1-2.1,4.7-2.1c1.2,0,2.3,0.2,3.2,0.6l0,0l2.3-1.7l0,0l0,0c-1.5-0.8-3.5-1.2-5.5-1.2c-4.5,0-8.1,2-8.1,4.4s3.6,4.4,8.1,4.4   c2,0,4-0.4,5.5-1.2l0,0l-2.3-1.7l0,0l0,0c-0.9,0.4-2,0.6-3.2,0.6C45,19.2,42.9,18.3,42.9,17.1 M66.6,20.8L61.5,17l5.1-3.7h-4.2   l-4.5,3.2v-3.2h-3.5v7.4h3.5v-3.2l4.5,3.2L66.6,20.8L66.6,20.8z M67.3,20.8h11.5V19h-8v-1h6.5v-1.8h-6.5v-1h8v-1.8H67.3V20.8z    M89.1,15.9c0,0.4-0.3,0.8-0.8,0.8h-5v-1.5h5C88.7,15.1,89.1,15.5,89.1,15.9 M91.7,17.5c0.4-0.4,0.5-1,0.5-1.5v-0.1   c0-1.3-1-2.4-2.4-2.4H80v7.4h3.3v-2.5h3l2.8,2.5h4l-2.9-2.4C90.3,18.3,91.1,18.1,91.7,17.5"/>
	<path class="st0" d="M55.5,23.8c-2.5,1.4-5.7,2.1-8.5,2.1s-6-0.7-8.5-2.1l0.4-0.3c2.6,1,5.4,1.5,8.1,1.5c2.6,0,5.5-0.5,8.1-1.5   L55.5,23.8z"/>
	<path class="st0" d="M58.5,26.3c-3.1,2.2-7.2,3.4-11.5,3.4s-8.4-1.3-11.5-3.4L36,26c3.2,1.6,7.1,2.5,11,2.5c4,0,7.8-0.9,11-2.5   L58.5,26.3z"/>
	<path class="st0" d="M62,29c-3.8,3.1-9.1,5-15,5s-11.2-1.9-15-5l0.4-0.3c4.1,2.3,9.1,3.7,14.5,3.7s10.4-1.4,14.5-3.7L62,29z"/>
	<path class="st1" d="M38.6,10.2c2.5-1.4,5.7-2.1,8.5-2.1s6,0.7,8.5,2.1l-0.4,0.3C52.5,9.5,49.6,9,47,9s-5.5,0.5-8.1,1.5L38.6,10.2z   "/>
	<path class="st1" d="M35.6,7.7c3.1-2.2,7.2-3.4,11.5-3.4s8.4,1.3,11.5,3.4L58.1,8C54.8,6.4,51,5.5,47,5.5S39.2,6.4,36,8L35.6,7.7z"/>
	<path class="st1" d="M32.1,5c3.8-3.1,9.1-5,15-5s11.2,1.9,15,5l-0.4,0.3C57.5,3,52.4,1.6,47,1.6S36.6,3,32.5,5.3L32.1,5z"/>
</g>
</svg>